# xmcd
#
# Track frame offsets:
#	150
#	9367
#	21675
#	37310
#	49919
#	61681
#	77818
#	89633
#	112483
#	124308
#	136465
#	148557
#	154487
#
# Disc length: 2397 seconds
# Revision: 3
# Processed by: cddbd v1.5.2PL0 Copyright (c) Steve Scherf et al.
# Submitted via: dBpowerAMP V12.0
#
DISCID=c7095b0d
DTITLE=The Beatles - Sgt. Pepper's Lonely Hearts Club Band (2009 EU)
DYEAR=1967
DGENRE=Rock
TTITLE0=Sgt. Pepper's Lonely Hearts Club Band
TTITLE1=With A Little Help From My Friends
TTITLE2=Lucy In The Sky With Diamonds
TTITLE3=Getting Better
TTITLE4=Fixing A Hole
TTITLE5=She's Leaving Home
TTITLE6=Being For The Benefit Of Mr. Kite!
TTITLE7=Within You Without You
TTITLE8=When I'm Sixty-Four
TTITLE9=Lovely Rita
TTITLE10=Good Morning Good Morning
TTITLE11=Sgt. Pepper's Lonley Hearts Club Band (Reprise)
TTITLE12=A Day In The Life
EXTD=
EXTT0=
EXTT1=
EXTT2=
EXTT3=
EXTT4=
EXTT5=
EXTT6=
EXTT7=
EXTT8=
EXTT9=
EXTT10=
EXTT11=
EXTT12=
PLAYORDER=
